<?xml version="1.0" encoding="UTF-8"?>
<!DOCTYPE svg PUBLIC "-//W3C//DTD SVG 1.1//EN" "http://www.w3.org/Graphics/SVG/1.1/DTD/svg11.dtd">
<svg version="1.2" width="210mm" height="297mm" viewBox="0 0 21000 29700" preserveAspectRatio="xMidYMid" fill-rule="evenodd" stroke-width="28.222" stroke-linejoin="round" xmlns="http://www.w3.org/2000/svg" xmlns:ooo="http://xml.openoffice.org/svg/export" xmlns:xlink="http://www.w3.org/1999/xlink" xmlns:presentation="http://sun.com/xmlns/staroffice/presentation" xmlns:smil="http://www.w3.org/2001/SMIL20/" xmlns:anim="urn:oasis:names:tc:opendocument:xmlns:animation:1.0" xmlns:svg="urn:oasis:names:tc:opendocument:xmlns:svg-compatible:1.0" xml:space="preserve">
 <defs class="ClipPathGroup">
  <clipPath id="presentation_clip_path" clipPathUnits="userSpaceOnUse">
   <rect x="0" y="0" width="21000" height="29700"/>
  </clipPath>
  <clipPath id="presentation_clip_path_shrink" clipPathUnits="userSpaceOnUse">
   <rect x="21" y="29" width="20958" height="29641"/>
  </clipPath>
 </defs>
 <defs class="TextShapeIndex">
  <g ooo:slide="id1" ooo:id-list="id3 id4 id5"/>
 </defs>
 <defs class="EmbeddedBulletChars">
  <g id="bullet-char-template-57356" transform="scale(0.00048828125,-0.00048828125)">
   <path d="M 580,1141 L 1163,571 580,0 -4,571 580,1141 Z"/>
  </g>
  <g id="bullet-char-template-57354" transform="scale(0.00048828125,-0.00048828125)">
   <path d="M 8,1128 L 1137,1128 1137,0 8,0 8,1128 Z"/>
  </g>
  <g id="bullet-char-template-10146" transform="scale(0.00048828125,-0.00048828125)">
   <path d="M 174,0 L 602,739 174,1481 1456,739 174,0 Z M 1358,739 L 309,1346 659,739 1358,739 Z"/>
  </g>
  <g id="bullet-char-template-10132" transform="scale(0.00048828125,-0.00048828125)">
   <path d="M 2015,739 L 1276,0 717,0 1260,543 174,543 174,936 1260,936 717,1481 1274,1481 2015,739 Z"/>
  </g>
  <g id="bullet-char-template-10007" transform="scale(0.00048828125,-0.00048828125)">
   <path d="M 0,-2 C -7,14 -16,27 -25,37 L 356,567 C 262,823 215,952 215,954 215,979 228,992 255,992 264,992 276,990 289,987 310,991 331,999 354,1012 L 381,999 492,748 772,1049 836,1024 860,1049 C 881,1039 901,1025 922,1006 886,937 835,863 770,784 769,783 710,716 594,584 L 774,223 C 774,196 753,168 711,139 L 727,119 C 717,90 699,76 672,76 641,76 570,178 457,381 L 164,-76 C 142,-110 111,-127 72,-127 30,-127 9,-110 8,-76 1,-67 -2,-52 -2,-32 -2,-23 -1,-13 0,-2 Z"/>
  </g>
  <g id="bullet-char-template-10004" transform="scale(0.00048828125,-0.00048828125)">
   <path d="M 285,-33 C 182,-33 111,30 74,156 52,228 41,333 41,471 41,549 55,616 82,672 116,743 169,778 240,778 293,778 328,747 346,684 L 369,508 C 377,444 397,411 428,410 L 1163,1116 C 1174,1127 1196,1133 1229,1133 1271,1133 1292,1118 1292,1087 L 1292,965 C 1292,929 1282,901 1262,881 L 442,47 C 390,-6 338,-33 285,-33 Z"/>
  </g>
  <g id="bullet-char-template-9679" transform="scale(0.00048828125,-0.00048828125)">
   <path d="M 813,0 C 632,0 489,54 383,161 276,268 223,411 223,592 223,773 276,916 383,1023 489,1130 632,1184 813,1184 992,1184 1136,1130 1245,1023 1353,916 1407,772 1407,592 1407,412 1353,268 1245,161 1136,54 992,0 813,0 Z"/>
  </g>
  <g id="bullet-char-template-8226" transform="scale(0.00048828125,-0.00048828125)">
   <path d="M 346,457 C 273,457 209,483 155,535 101,586 74,649 74,723 74,796 101,859 155,911 209,963 273,989 346,989 419,989 480,963 531,910 582,859 608,796 608,723 608,648 583,586 532,535 482,483 420,457 346,457 Z"/>
  </g>
  <g id="bullet-char-template-8211" transform="scale(0.00048828125,-0.00048828125)">
   <path d="M -4,459 L 1135,459 1135,606 -4,606 -4,459 Z"/>
  </g>
  <g id="bullet-char-template-61548" transform="scale(0.00048828125,-0.00048828125)">
   <path d="M 173,740 C 173,903 231,1043 346,1159 462,1274 601,1332 765,1332 928,1332 1067,1274 1183,1159 1299,1043 1357,903 1357,740 1357,577 1299,437 1183,322 1067,206 928,148 765,148 601,148 462,206 346,322 231,437 173,577 173,740 Z"/>
  </g>
 </defs>
 <g>
  <g id="id2" class="Master_Slide">
   <g id="bg-id2" class="Background"/>
   <g id="bo-id2" class="BackgroundObjects"/>
  </g>
 </g>
 <g class="SlideGroup">
  <g>
   <g id="container-id1">
    <g id="id1" class="Slide" clip-path="url(#presentation_clip_path)">
     <g class="Page">
      <g class="com.sun.star.drawing.PolyPolygonShape">
       <g id="id3">
        <rect class="BoundingBox" stroke="none" fill="none" x="1530" y="1113" width="1135" height="1136"/>
        <path fill="none" stroke="rgb(16,15,13)" stroke-width="17" stroke-linejoin="miter" d="M 1614,1402 L 2098,1123 2580,1402 2580,1960 2098,2238 1614,1960 1614,1402 Z"/>
        <path fill="none" stroke="rgb(16,15,13)" stroke-width="17" stroke-linejoin="miter" d="M 2376,1198 L 2654,1681 2376,2164 1818,2164 1540,1681 1818,1198 2376,1198 Z"/>
       </g>
      </g>
      <g class="com.sun.star.drawing.ClosedBezierShape">
       <g id="id4">
        <rect class="BoundingBox" stroke="none" fill="none" x="1648" y="1234" width="899" height="899"/>
        <path fill="none" stroke="rgb(16,15,13)" stroke-width="24" stroke-linejoin="miter" d="M 2314,1467 C 2314,1585 2218,1682 2099,1682 1980,1682 1884,1585 1884,1467 1884,1347 1980,1251 2099,1251 2218,1251 2314,1347 2314,1467 Z"/>
        <path fill="none" stroke="rgb(16,15,13)" stroke-width="24" stroke-linejoin="miter" d="M 2314,1682 C 2314,1800 2218,1896 2099,1896 1980,1896 1884,1800 1884,1682 1884,1563 1980,1467 2099,1467 2218,1467 2314,1563 2314,1682 Z"/>
        <path fill="none" stroke="rgb(16,15,13)" stroke-width="24" stroke-linejoin="miter" d="M 2314,1896 C 2314,2015 2218,2111 2099,2111 1980,2111 1884,2015 1884,1896 1884,1778 1980,1682 2099,1682 2218,1682 2314,1778 2314,1896 Z"/>
        <path fill="none" stroke="rgb(16,15,13)" stroke-width="24" stroke-linejoin="miter" d="M 2120,1571 C 2120,1689 2024,1785 1905,1785 1787,1785 1691,1689 1691,1571 1691,1452 1787,1355 1905,1355 2024,1355 2120,1452 2120,1571 Z"/>
        <path fill="none" stroke="rgb(16,15,13)" stroke-width="24" stroke-linejoin="miter" d="M 2120,1785 C 2120,1904 2024,2000 1905,2000 1787,2000 1691,1904 1691,1785 1691,1667 1787,1571 1905,1571 2024,1571 2120,1667 2120,1785 Z"/>
        <path fill="none" stroke="rgb(16,15,13)" stroke-width="24" stroke-linejoin="miter" d="M 2495,1574 C 2495,1693 2399,1789 2281,1789 2162,1789 2065,1693 2065,1574 2065,1456 2162,1359 2281,1359 2399,1359 2495,1456 2495,1574 Z"/>
        <path fill="none" stroke="rgb(16,15,13)" stroke-width="24" stroke-linejoin="miter" d="M 2495,1789 C 2495,1907 2399,2004 2281,2004 2162,2004 2065,1907 2065,1789 2065,1670 2162,1574 2281,1574 2399,1574 2495,1670 2495,1789 Z"/>
        <path fill="none" stroke="rgb(16,15,13)" stroke-width="24" stroke-linejoin="miter" d="M 2534,1683 C 2534,1924 2338,2119 2097,2119 1856,2119 1660,1924 1660,1683 1660,1442 1856,1246 2097,1246 2338,1246 2534,1442 2534,1683 Z"/>
       </g>
      </g>
      <g class="com.sun.star.drawing.PolyLineShape">
       <g id="id5">
        <rect class="BoundingBox" stroke="none" fill="none" x="1153" y="1453" width="1884" height="465"/>
        <path fill="none" stroke="rgb(16,15,13)" stroke-width="17" stroke-linejoin="miter" d="M 1388,1910 L 1166,1688 1388,1466 1609,1688 1388,1910 Z"/>
        <path fill="none" stroke="rgb(16,15,13)" stroke-width="17" stroke-linejoin="miter" d="M 1596,1777 L 1540,1833 1394,1688 1540,1542 1590,1593"/>
        <path fill="none" stroke="rgb(16,15,13)" stroke-width="17" stroke-linejoin="miter" d="M 2801,1910 L 3023,1688 2801,1466 2580,1688 2801,1910 Z"/>
        <path fill="none" stroke="rgb(16,15,13)" stroke-width="17" stroke-linejoin="miter" d="M 2594,1777 L 2650,1833 2795,1688 2650,1542 2599,1593"/>
       </g>
      </g>
     </g>
    </g>
   </g>
  </g>
 </g>
</svg>