<?xml version="1.0" encoding="UTF-8"?>
<!DOCTYPE svg PUBLIC "-//W3C//DTD SVG 1.1//EN" "http://www.w3.org/Graphics/SVG/1.1/DTD/svg11.dtd">
<svg version="1.2" width="210mm" height="297mm" viewBox="0 0 21000 29700" preserveAspectRatio="xMidYMid" fill-rule="evenodd" stroke-width="28.222" stroke-linejoin="round" xmlns="http://www.w3.org/2000/svg" xmlns:ooo="http://xml.openoffice.org/svg/export" xmlns:xlink="http://www.w3.org/1999/xlink" xmlns:presentation="http://sun.com/xmlns/staroffice/presentation" xmlns:smil="http://www.w3.org/2001/SMIL20/" xmlns:anim="urn:oasis:names:tc:opendocument:xmlns:animation:1.0" xmlns:svg="urn:oasis:names:tc:opendocument:xmlns:svg-compatible:1.0" xml:space="preserve">
 <g class="SlideGroup">
  <g>
   <g id="container-id1">
    <g id="id1" class="Slide" clip-path="url(#presentation_clip_path)">
     <g class="Page">
      <g class="com.sun.star.drawing.PolyPolygonShape">
       <g id="id3">
        <rect class="BoundingBox" stroke="b" fill="none" x="1530" y="1113" width="1135" height="1136"/>
        <path fill="none" stroke="rgb(16,15,13)" stroke-width="17" stroke-linejoin="miter" d="M 1614,1402 L 2098,1123 2580,1402 2580,1960 2098,2238 1614,1960 1614,1402 Z"/>
        <path fill="none" stroke="rgb(16,15,13)" stroke-width="17" stroke-linejoin="miter" d="M 2376,1198 L 2654,1681 2376,2164 1818,2164 1540,1681 1818,1198 2376,1198 Z"/>
       </g>
      </g>
      <g class="com.sun.star.drawing.ClosedBezierShape">
       <g id="id4">
        <rect class="BoundingBox" stroke="none" fill="none" x="1648" y="1234" width="899" height="899"/>
        <path fill="none" stroke="rgb(16,15,13)" stroke-width="24" stroke-linejoin="miter" d="M 2314,1467 C 2314,1585 2218,1682 2099,1682 1980,1682 1884,1585 1884,1467 1884,1347 1980,1251 2099,1251 2218,1251 2314,1347 2314,1467 Z"/>
        <path fill="none" stroke="rgb(16,15,13)" stroke-width="24" stroke-linejoin="miter" d="M 2314,1682 C 2314,1800 2218,1896 2099,1896 1980,1896 1884,1800 1884,1682 1884,1563 1980,1467 2099,1467 2218,1467 2314,1563 2314,1682 Z"/>
        <path fill="none" stroke="rgb(16,15,13)" stroke-width="24" stroke-linejoin="miter" d="M 2314,1896 C 2314,2015 2218,2111 2099,2111 1980,2111 1884,2015 1884,1896 1884,1778 1980,1682 2099,1682 2218,1682 2314,1778 2314,1896 Z"/>
        <path fill="none" stroke="rgb(16,15,13)" stroke-width="24" stroke-linejoin="miter" d="M 2120,1571 C 2120,1689 2024,1785 1905,1785 1787,1785 1691,1689 1691,1571 1691,1452 1787,1355 1905,1355 2024,1355 2120,1452 2120,1571 Z"/>
        <path fill="none" stroke="rgb(16,15,13)" stroke-width="24" stroke-linejoin="miter" d="M 2120,1785 C 2120,1904 2024,2000 1905,2000 1787,2000 1691,1904 1691,1785 1691,1667 1787,1571 1905,1571 2024,1571 2120,1667 2120,1785 Z"/>
        <path fill="none" stroke="rgb(16,15,13)" stroke-width="24" stroke-linejoin="miter" d="M 2495,1574 C 2495,1693 2399,1789 2281,1789 2162,1789 2065,1693 2065,1574 2065,1456 2162,1359 2281,1359 2399,1359 2495,1456 2495,1574 Z"/>
        <path fill="none" stroke="rgb(16,15,13)" stroke-width="24" stroke-linejoin="miter" d="M 2495,1789 C 2495,1907 2399,2004 2281,2004 2162,2004 2065,1907 2065,1789 2065,1670 2162,1574 2281,1574 2399,1574 2495,1670 2495,1789 Z"/>
        <path fill="none" stroke="rgb(16,15,13)" stroke-width="24" stroke-linejoin="miter" d="M 2534,1683 C 2534,1924 2338,2119 2097,2119 1856,2119 1660,1924 1660,1683 1660,1442 1856,1246 2097,1246 2338,1246 2534,1442 2534,1683 Z"/>
       </g>
      </g>
      <g class="com.sun.star.drawing.PolyLineShape">
       <g id="id5">
        <rect class="BoundingBox" stroke="none" fill="none" x="1153" y="1453" width="1884" height="465"/>
        <path fill="none" stroke="rgb(16,15,13)" stroke-width="17" stroke-linejoin="miter" d="M 1388,1910 L 1166,1688 1388,1466 1609,1688 1388,1910 Z"/>
        <path fill="none" stroke="rgb(16,15,13)" stroke-width="17" stroke-linejoin="miter" d="M 1596,1777 L 1540,1833 1394,1688 1540,1542 1590,1593"/>
        <path fill="none" stroke="rgb(16,15,13)" stroke-width="17" stroke-linejoin="miter" d="M 2801,1910 L 3023,1688 2801,1466 2580,1688 2801,1910 Z"/>
        <path fill="none" stroke="rgb(16,15,13)" stroke-width="17" stroke-linejoin="miter" d="M 2594,1777 L 2650,1833 2795,1688 2650,1542 2599,1593"/>
       </g>
      </g>
     </g>
    </g>
   </g>
  </g>
 </g>
</svg>